<svg height="512pt" viewBox="0 -34 512.03842 512" width="512pt" xmlns="http://www.w3.org/2000/svg"><path d="m451.667969 296.695312c-.582031 7.734376-.4375 15.503907.429687 23.210938 1.367188 13.925781 3.90625 27.714844 7.59375 41.214844 1.960938 6.996094 16.296875 47.957031 19.285156 54.441406 3.683594 6.195312 6.988282 12.609375 9.898438 19.203125l-156.074219.425781v-.085937c-1.023437-3.414063-21.761719-75.945313-42.582031-86.1875-5.289062 2.050781-11.09375 4.78125-16.980469 7.597656-11.804687 6.816406-24.269531 12.421875-37.207031 16.722656-5.136719 1.308594-10.582031-.183593-14.335938-3.925781-2.640624-2.667969-4.578124-5.953125-5.632812-9.554688-1.699219-4.8125-2.308594-9.941406-1.789062-15.019531 1.414062-5.25 1.902343-10.710937 1.449218-16.128906-1.621094-6.910156-.9375-8.53125-5.632812-12.203125-2.046875-1.621094 6.828125-8.191406 21.589844-13.910156 3.171874-1.210938 5.171874-4.363282 4.914062-7.75-.253906-3.386719-2.703125-6.203125-6.023438-6.925782-11.574218-2.101562-22.984374-5.039062-34.132812-8.789062-2.644531-2.476562 1.109375-6.65625 4.609375-14.59375 1.417969-3.453125 1.832031-7.242188 1.191406-10.921875-1.277343-7.253906-11.433593-9.984375-16.382812-13.992187-2.390625-1.964844-6.144531-4.78125-6.570313-8.195313-.683594-4.863281 4.523438-11.605469 7.082032-15.015625 11.433593-15.191406 19.542968-21.675781 27.734374-39.167969 1.027344-1.832031 1.613282-3.878906 1.707032-5.976562-.085938-9.640625-12.972656-13.738281-14.164063-23.039063-.175781-2.761718.261719-5.53125 1.277344-8.105468 3.628906-8.324219 6.707031-16.875 9.214844-25.601563 1.519531-7.988281 3.515625-15.882813 5.976562-23.636719 5.042969-15.410156 13.078125-29.675781 23.636719-41.984375 15.855469-16.308593 36.519531-27.105469 58.964844-30.804687 17.78125-4.179688 35.828125-7.144532 54.015625-8.875 1.792969-.085938 3.5-.253906 5.289062-.339844 39.851563-2.21875 71.339844 12.457031 102.144531 38.742188 17.128907 14.097656 29.371094 33.238281 34.988282 54.695312 4.535156 18.160156 6.65625 36.839844 6.3125 55.554688-.097656 13.78125-2.910156 27.410156-8.277344 40.105468zm0 0" fill="#a4c2f7"/><path d="m426.070312 296.695312c-.585937 7.734376-.441406 15.503907.425782 23.210938 1.367187 13.925781 3.90625 27.714844 7.59375 41.214844 1.964844 6.996094 16.300781 47.957031 19.285156 54.441406 3.6875 6.195312 6.992188 12.609375 9.898438 19.203125l-130.472657.339844c-1.023437-3.414063-21.761719-75.945313-42.582031-86.1875-5.289062 2.050781-11.09375 4.78125-16.980469 7.597656-2.3125-3.109375-5.246093-5.695313-8.621093-7.597656-13.480469 5.121093-29.695313 14.765625-42.921876 20.394531-2.640624-2.667969-4.578124-5.953125-5.632812-9.554688-1.699219-4.8125-2.308594-9.941406-1.789062-15.019531 1.414062-5.25 1.902343-10.710937 1.449218-16.128906-1.621094-6.910156-.9375-8.53125-5.632812-12.203125-2.046875-1.621094 6.828125-8.191406 21.589844-13.910156 3.171874-1.210938 5.171874-4.363282 4.914062-7.75-.253906-3.386719-2.703125-6.203125-6.023438-6.925782-11.574218-2.101562-22.984374-5.039062-34.132812-8.789062-2.644531-2.476562 1.109375-6.65625 4.609375-14.59375 1.417969-3.453125 1.832031-7.242188 1.191406-10.921875-1.277343-7.253906-11.433593-9.984375-16.382812-13.992187-2.390625-1.964844-6.144531-4.78125-6.570313-8.195313-.683594-4.863281 4.523438-11.605469 7.082032-15.015625 11.433593-15.191406 19.542968-21.675781 27.734374-39.167969 1.027344-1.832031 1.613282-3.878906 1.707032-5.976562-.085938-9.640625-12.972656-13.738281-14.164063-23.039063-.175781-2.761718.261719-5.53125 1.277344-8.105468 3.628906-8.324219 6.707031-16.875 9.214844-25.601563 1.519531-7.988281 3.515625-15.882813 5.976562-23.636719 5.042969-15.410156 13.078125-29.675781 23.636719-41.984375 15.855469-16.308593 36.519531-27.105469 58.964844-30.804687 17.78125-4.179688 35.828125-7.144532 54.015625-8.875 30.660156 3.796875 59.320312 17.242187 81.835937 38.402344 17.125 14.097656 29.371094 33.238281 34.984375 54.695312 4.535157 18.160156 6.660157 36.839844 6.316407 55.554688-.097657 13.78125-2.914063 27.410156-8.277344 40.105468zm0 0" fill="#d4e1f4"/><path d="m503.464844 230.390625c0 37.703125-30.5625 68.265625-68.265625 68.265625-4.292969-.003906-8.578125-.402344-12.800781-1.191406-32.222657-6.109375-55.550782-34.273438-55.550782-67.074219s23.328125-60.960937 55.550782-67.070313c4.222656-.792968 8.507812-1.191406 12.800781-1.195312 37.703125 0 68.265625 30.5625 68.265625 68.265625zm0 0" fill="#d4e1f4"/><path d="m477.867188 230.390625c0-37.042969-24.832032-67.070313-55.46875-67.070313-30.632813 0-55.464844 30.027344-55.464844 67.070313s24.832031 67.074219 55.464844 67.074219c30.636718 0 55.46875-30.03125 55.46875-67.074219zm0 0" fill="#e3e7f2"/><path d="m216.0625 359.757812c1.054688 3.601563 2.992188 6.886719 5.632812 9.554688 3.753907 3.742188 9.199219 5.234375 14.335938 3.925781 3.867188-.964843 7.636719-2.277343 11.265625-3.925781-2.644531-2.667969-4.578125-5.953125-5.632813-9.554688-1.699218-4.8125-2.3125-9.941406-1.792968-15.019531 1.414062-5.25 1.90625-10.710937 1.453125-16.128906-1.621094-6.910156-.941407-8.53125-5.632813-12.203125-2.046875-1.621094 6.824219-8.191406 21.589844-13.910156 3.171875-1.210938 5.167969-4.363282 4.914062-7.75-.257812-3.386719-2.707031-6.203125-6.023437-6.925782-11.578125-2.101562-22.984375-5.039062-34.132813-8.789062-2.648437-2.476562 1.109376-6.65625 4.605469-14.59375 1.421875-3.453125 1.835938-7.242188 1.195313-10.921875-1.28125-7.253906-11.433594-9.984375-16.382813-13.992187-2.390625-1.964844-6.144531-4.78125-6.570312-8.195313-.683594-4.863281 4.519531-11.605469 7.082031-15.015625 11.433594-15.191406 19.539062-21.675781 27.734375-39.167969 1.027344-1.832031 1.613281-3.878906 1.703125-5.976562-.082031-9.640625-12.96875-13.738281-14.164062-23.039063-.175782-2.761718.261718-5.53125 1.28125-8.105468 3.625-8.324219 6.707031-16.875 9.214843-25.601563 1.519531-7.988281 3.511719-15.882813 5.972657-23.636719 5.046874-15.410156 13.078124-29.675781 23.636718-41.984375 15.859375-16.308593 36.523438-27.105469 58.96875-30.804687 17.449219-4.082032 35.152344-7.011719 52.992188-8.761719-6.410156-.621094-12.855469-.773437-19.289063-.453125-1.789062.085938-3.496093.253906-5.289062.339844-18.1875 1.730468-36.234375 4.695312-54.015625 8.875-22.445313 3.699218-43.109375 14.496094-58.964844 30.804687-10.558594 12.308594-18.59375 26.574219-23.636719 41.984375-2.460937 7.753906-4.457031 15.648438-5.976562 23.636719-2.507813 8.726563-5.585938 17.277344-9.214844 25.601563-1.015625 2.574218-1.453125 5.34375-1.277344 8.105468 1.191407 9.300782 14.078125 13.398438 14.164063 23.039063-.09375 2.097656-.679688 4.144531-1.707032 5.976562-8.191406 17.492188-16.300781 23.976563-27.734374 39.167969-2.558594 3.410156-7.765626 10.152344-7.082032 15.015625.425782 3.414063 4.179688 6.230469 6.570313 8.195313 4.949219 4.007812 15.105469 6.738281 16.382812 13.992187.640625 3.679687.226563 7.46875-1.191406 10.921875-3.5 7.9375-7.253906 12.117188-4.609375 14.59375 11.148438 3.75 22.558594 6.6875 34.132812 8.789062 3.320313.722657 5.769532 3.539063 6.023438 6.925782.257812 3.386718-1.742188 6.539062-4.914062 7.75-14.761719 5.71875-23.636719 12.289062-21.589844 13.910156 4.695312 3.671875 4.011718 5.292969 5.632812 12.203125.453125 5.417969-.035156 10.878906-1.449218 16.128906-.519532 5.078125.089843 10.207031 1.789062 15.019531zm0 0" fill="#fff"/><path d="m332.800781 435.191406 25.597657-.070312c-1.023438-3.410156-21.757813-75.945313-42.578126-86.183594-5.292968 2.046875-11.09375 4.777344-16.984374 7.59375 17.570312 21.488281 33.109374 75.640625 33.964843 78.574219zm0 0" fill="#fff"/><path d="m302.523438 26.332031c-16.925782 3.082031-32.882813 10.117188-46.574219 20.53125-12.679688 11.484375-22.332031 25.910157-28.109375 42.011719-3.089844 8.351562-4.652344 17.5-7.089844 26.207031-2.566406 9.480469-5.839844 18.761719-9.789062 27.757813l-16.109376-5.632813c3.675782-8.351562 6.757813-16.957031 9.222657-25.746093l3.628906-14.351563c1.0625-4.851563 2.460937-9.625 4.179687-14.285156 6.789063-18.875 18.1875-35.753907 33.160157-49.101563 15.785156-12.183594 34.242187-20.429687 53.84375-24.0625zm0 0" fill="#fff"/><g fill="#428dff"><path d="m248.320312 44.476562c-.316406-.480468-.660156-.941406-1.03125-1.375-1.574218-1.660156-3.765624-2.585937-6.050781-2.558593-1.195312.054687-2.363281.382812-3.414062.953125-3.328125 1.609375-5.351563 5.074218-5.121094 8.765625.15625 1.125.53125 2.207031 1.109375 3.183593.554688.96875 1.300781 1.816407 2.195312 2.492188 1.832032 1.28125 4.058594 1.882812 6.289063 1.703125 2.117187-.238281 4.070313-1.246094 5.503906-2.824219 1.308594-1.597656 1.996094-3.621094 1.925781-5.691406l-.203124-1.570312c-.113282-.558594-.292969-1.101563-.539063-1.621094-.152344-.511719-.378906-1.003906-.664063-1.457032zm0 0"/><path d="m505.414062 100.070312c-6.105468-23.128906-19.285156-43.773437-37.703124-59.042968-35.617188-30.378906-69.015626-42.929688-108.160157-40.773438-20.4375 1.496094-40.71875 4.636719-60.652343 9.386719-11.832032 2.445313-23.328126 6.3125-34.230469 11.523437-2.132813.96875-3.757813 2.800782-4.46875 5.039063-.710938 2.234375-.4375 4.667969.75 6.691406 2.300781 3.875 7.140625 5.414063 11.253906 3.578125 9.664063-4.589844 19.84375-8 30.320313-10.15625 19.050781-4.550781 38.433593-7.574218 57.96875-9.035156 34.429687-1.90625 64.117187 9.386719 96.125 36.691406 15.8125 12.945313 27.109374 30.574219 32.265624 50.347656 4.371094 17.441407 6.402344 35.382813 6.050782 53.359376-.089844 7.246093-.980469 14.460937-2.664063 21.511718-23.542969-26.246094-61.945312-33.074218-93.09375-16.550781-31.148437 16.527344-47.03125 52.148437-38.503906 86.359375 8.527344 34.214844 39.269531 58.21875 74.527344 58.191406 2.5625 0 5.121093-.136718 7.679687-.382812.007813 4.6875.261719 9.375.761719 14.035156 1.402344 14.390625 4.03125 28.632812 7.859375 42.574219 1.917969 6.824219 16.46875 48.578125 19.667969 55.542969 1.136719 2.515624 2.429687 4.960937 3.875 7.3125l-135.84375.382812c-5.066407-16.929688-17.570313-54.824219-33.082031-74.578125l3.496093-1.332031c4.429688-1.707032 7.757813-2.960938 9.5-3.550782 27.628907-9.507812 41.445313-23.253906 41.078125-40.847656-.097656-4.644531-3.890625-8.355468-8.53125-8.355468h-.1875c-4.710937.101562-8.449218 4.003906-8.347656 8.710937.136719 6.417969-4.878906 15.855469-29.542969 24.339844-1.808593.621093-5.347656 1.960937-10.050781 3.753906-4.496094 1.707031-10.105469 3.855469-16.273438 6.136719h-.050781c-8.535156 3.484375-16.882812 7.398437-25.019531 11.730468-8.882812 5.03125-18.257812 9.128907-27.980469 12.230469-6.136719 1.363281-8.875-4.269531-9.984375-7.773437-1.332031-3.667969-1.820312-7.589844-1.433594-11.46875.160157-1.425782.453126-2.84375.734376-4.269532 1.273437-4.8125 1.457031-9.847656.542968-14.746093-.296875-1.285157-.519531-2.371094-.707031-3.308594-.367187-2.261719-1.007813-4.46875-1.910156-6.570313 4.269531-2.464843 8.734375-4.574218 13.34375-6.316406 6.6875-2.570312 10.894531-9.226562 10.347656-16.371094-.546875-7.144531-5.71875-13.082031-12.71875-14.605468-13.824219-3.019532-21.71875-4.957032-26.171875-6.140625.855469-1.613281 1.707031-3.414063 2.613281-5.402344 2.117188-5.019531 2.746094-10.539063 1.816407-15.90625-2.15625-7.570313-7.742188-13.679687-15.085938-16.503906-1.714844-.890625-3.351562-1.917969-4.890625-3.082031-1-.789063-1.945313-1.644532-2.832031-2.558594 1.355468-3.066406 3.144531-5.925782 5.316406-8.484375 3.34375-4.453125 6.40625-8.140625 9.265625-11.578125 7.878906-8.789063 14.441406-18.675782 19.480469-29.347656 1.558594-2.898438 2.382812-6.136719 2.40625-9.425782-.574219-7.074218-4.042969-13.59375-9.582032-18.023437-2.183593-2.183594-4.445312-4.457031-4.648437-5.972657.058594-1.480468.363281-2.941406.902344-4.320312 3.941406-8.964844 7.203125-18.214844 9.753906-27.671875 2.441406-8.703125 4.003906-17.851563 7.089844-26.207031.949219-2.492188 1.964843-4.957032 3.074219-7.371094 1.746093-4.195312.019531-9.027344-3.984376-11.171875-2.0625-1.085937-4.484374-1.257813-6.679687-.476563s-3.964844 2.445313-4.875 4.589844c-1.265625 2.757813-2.414063 5.554688-3.492187 8.378906-1.714844 4.660157-3.113282 9.433594-4.179688 14.285157l-3.628906 14.355469c-2.460938 8.785156-5.542969 17.390624-9.222656 25.742187l-.058594.09375c-1.457032 3.789063-2.023438 7.863281-1.65625 11.90625 1.230468 6.25 4.59375 11.878906 9.515625 15.921875 2.34375 2.355469 4.5625 4.582031 4.597656 6.144531-.25.769531-.554687 1.519531-.914063 2.242188-4.441406 9.253906-10.1875 17.820312-17.066406 25.441406-3.011718 3.632813-6.238281 7.515625-10.027344 12.566406-5.382812 5.613281-8.414062 13.070313-8.472656 20.847657 1.292969 5.679687 4.761719 10.625 9.660156 13.773437 2.148438 1.636719 4.429688 3.085937 6.828126 4.328125 2.394531 1.105469 4.589843 2.601562 6.492187 4.425781.363281 2.046875.160156 4.15625-.589844 6.09375-.917969 2.089844-1.859375 3.890625-2.675781 5.453125-2.460938 4.71875-6.5625 12.621094.050781 18.773438 1.925781 1.808594 3.472657 3.25 35.421875 10.292968-15.429687 6.277344-23.722656 12.601563-24.652344 18.824219-.386718 3.339844.917969 6.652344 3.480469 8.832031.851563.679688 1.167969 1.003907 1.183594 1.003907.238281.84375.429687 1.699219.574219 2.5625.210937 1.109375.476562 2.386719.851562 3.882812.265625 2.523438.039063 5.070313-.664062 7.507813-.375 1.910156-.742188 3.824218-.9375 5.539062-.707032 6.335938.015625 12.75 2.113281 18.773438 2.746094 11.335937 12.707031 19.457031 24.363281 19.855468 1.882813-.003906 3.761719-.214843 5.597656-.628906 11.152344-3.332031 21.890626-7.910156 32.007813-13.65625 6.53125-3.328125 13.210937-6.707031 19.328125-9.324218 12.058594 10.605468 27.5625 51.199218 35.355469 78.933593 1.066406 3.652344 4.421875 6.15625 8.226562 6.140625l156.074219-.425781c2.664062-.007813 5.171875-1.257813 6.777344-3.382813 1.609375-2.125 2.132812-4.878906 1.414062-7.445312-1.535156-4.703125-3.703125-9.179688-6.441406-13.304688-1.460938-2.300781-2.769531-4.695312-3.925781-7.167968-2.6875-5.851563-16.914063-46.386719-18.832031-53.230469-3.570313-13.035156-6.011719-26.351563-7.304688-39.808594-.5625-5.296875-.75-10.628906-.574219-15.957031 20.753907-7.019531 37.503907-22.601562 46-42.796875 8.496094-20.195313 7.925781-43.0625-1.566406-62.808594 4.878906-12.617187 7.445313-26.011719 7.578125-39.535156.363281-19.46875-1.851562-38.902344-6.585938-57.789063zm-70.214843 190.054688c-24.160157 0-45.941407-14.554688-55.1875-36.875-9.242188-22.320312-4.132813-48.011719 12.949219-65.097656 17.085937-17.082032 42.777343-22.191406 65.097656-12.949219 22.320312 9.246094 36.875 31.027344 36.875 55.1875-.039063 32.976563-26.757813 59.695313-59.734375 59.734375zm0 0"/><path d="m8.535156 315.722656h17.066406c3.808594.003906 7.160157-2.519531 8.207032-6.183594l8.3125-29.101562 17.867187 71.492188c.921875 3.683593 4.160157 6.316406 7.953125 6.460937h.324219c3.671875-.003906 6.929687-2.351563 8.089844-5.835937l11.554687-34.644532 7.390625 11.09375c1.894531 2.847656 5.308594 4.289063 8.671875 3.660156 3.363282-.628906 6.027344-3.207031 6.765625-6.546874l8.285157-37.339844 9.148437 45.71875c.675781 3.382812 3.324219 6.023437 6.707031 6.695312 3.382813.671875 6.839844-.761718 8.753906-3.628906l14.53125-21.839844h21.035157c4.714843 0 8.535156-3.820312 8.535156-8.53125 0-4.714844-3.820313-8.535156-8.535156-8.535156h-25.597657c-2.855468 0-5.519531 1.425781-7.101562 3.800781l-5.640625 8.464844-13.03125-65.171875c-.800781-3.9375-4.246094-6.78125-8.269531-6.824219h-.09375c-4-.003906-7.46875 2.773438-8.335938 6.679688l-12.722656 57.320312-5.972656-8.96875c-1.808594-2.710937-5.003906-4.152343-8.230469-3.71875-3.230469.433594-5.929687 2.667969-6.960937 5.757813l-7.796876 23.398437-18.5-74.011719c-.9375-3.742187-4.273437-6.390624-8.132812-6.457031-3.882812-.125-7.339844 2.4375-8.355469 6.183594l-15.292969 53.546875h-10.628906c-4.714844 0-8.535156 3.820312-8.535156 8.535156 0 4.710938 3.820312 8.53125 8.535156 8.53125zm0 0"/><path d="m454.136719 207.992188-28.160157 35.222656-10.328124-10.324219c-3.347657-3.234375-8.667969-3.1875-11.960938.105469-3.292969 3.289062-3.335938 8.613281-.101562 11.960937l17.066406 17.066407c1.59375 1.597656 3.757812 2.496093 6.015625 2.5h.476562c2.421875-.136719 4.671875-1.296876 6.1875-3.191407l34.132813-42.664062c1.90625-2.382813 2.394531-5.597657 1.285156-8.441407-1.109375-2.839843-3.648438-4.871093-6.664062-5.332031-3.015626-.460937-6.046876.722657-7.949219 3.105469zm0 0"/></g></svg>